<?xml version="1.0" standalone="no"?>
<!DOCTYPE svg PUBLIC "-//W3C//DTD SVG 20010904//EN"
 "http://www.w3.org/TR/2001/REC-SVG-20010904/DTD/svg10.dtd">
<svg version="1.0" xmlns="http://www.w3.org/2000/svg"
 width="154.000000pt" height="164.000000pt" viewBox="0 0 154.000000 164.000000"
 preserveAspectRatio="xMidYMid meet">

<g transform="translate(0.000000,164.000000) scale(0.100000,-0.100000)"
fill="#000000" stroke="none">
<path d="M0 832 c0 -615 3 -811 12 -820 9 -9 190 -12 753 -12 707 0 743 1 759
18 15 17 16 85 14 818 l-3 799 -767 3 -768 2 0 -808z m1208 311 l2 -433 -140
0 -140 0 0 275 0 275 -105 0 -105 0 0 104 0 104 73 10 c101 16 165 36 217 71
41 27 52 30 120 28 l75 -2 3 -432z m-593 304 c3 -12 5 -58 3 -102 l-3 -80 -72
-3 -73 -3 0 -49 0 -49 73 -3 72 -3 3 -72 3 -73 49 0 50 0 0 75 0 75 60 0 60 0
0 -200 0 -200 -259 0 c-227 0 -260 2 -265 16 -8 21 -8 338 1 537 l6 157 143 0
c141 0 144 0 149 -23z m535 -977 c0 -24 -14 -44 -60 -92 -33 -35 -60 -64 -60
-65 0 -8 61 5 74 16 17 14 36 7 36 -15 0 -8 5 -14 10 -14 15 0 50 38 50 54 0
22 29 41 42 28 8 -8 6 -18 -6 -37 -10 -15 -15 -29 -12 -32 12 -12 55 17 71 47
17 33 45 41 45 13 0 -10 -7 -27 -15 -37 -8 -11 -15 -37 -15 -58 0 -26 -6 -44
-20 -55 -29 -25 -25 -33 14 -26 30 5 34 2 38 -21 3 -14 3 -28 0 -31 -3 -3 -78
-5 -167 -5 -217 0 -252 -5 -270 -40 -25 -48 -74 -52 -53 -5 6 14 9 27 7 28 -2
2 -40 1 -84 -4 -44 -4 -115 -10 -157 -14 -56 -6 -78 -5 -78 4 0 6 11 11 24 11
48 0 56 8 39 41 -8 16 -16 29 -18 29 -2 0 -32 -24 -65 -54 -70 -62 -139 -100
-213 -116 -62 -14 -107 -2 -107 29 0 27 64 77 133 104 56 22 58 24 102 109 25
47 45 89 45 92 0 10 -82 7 -125 -5 -22 -6 -70 -24 -108 -41 -37 -17 -70 -28
-73 -25 -3 3 4 25 17 49 20 36 33 46 79 62 32 11 94 21 150 24 52 2 100 8 105
12 6 4 21 10 35 12 21 2 25 -1 22 -20 -1 -14 9 -37 23 -54 29 -34 31 -55 10
-105 -19 -45 -12 -53 20 -23 23 21 109 44 127 33 5 -2 1 -17 -7 -34 -22 -41
-8 -36 33 12 25 29 40 39 55 35 10 -2 28 1 38 7 26 16 41 -6 28 -40 -9 -25 2
-31 19 -10 6 7 9 22 6 34 -4 15 0 22 18 27 14 3 37 28 58 62 35 56 110 134
130 134 5 0 10 -14 10 -30z"/>
<path d="M1081 424 c-20 -25 -27 -44 -17 -44 8 0 48 61 43 66 -2 3 -14 -7 -26
-22z"/>
<path d="M497 279 c-55 -88 -56 -89 -10 -82 57 9 71 19 83 63 11 43 1 80 -23
80 -7 -1 -29 -28 -50 -61z"/>
<path d="M1062 277 c-12 -13 -22 -31 -22 -40 0 -27 38 -3 46 29 9 35 1 38 -24
11z"/>
<path d="M1238 293 c-10 -2 -18 -14 -18 -25 0 -12 1 -19 3 -17 1 2 11 14 21
27 11 12 17 21 15 21 -2 -1 -12 -3 -21 -6z"/>
<path d="M976 236 c-30 -51 -33 -71 -10 -62 9 3 27 6 41 6 l25 0 -23 19 c-21
17 -22 21 -11 46 21 45 6 39 -22 -9z"/>
<path d="M1081 223 l-44 -46 33 6 c18 4 68 7 111 7 l78 0 -22 23 c-22 23 -22
23 -44 4 -11 -10 -32 -17 -45 -15 -19 2 -23 8 -22 36 1 17 1 32 0 31 0 0 -21
-21 -45 -46z"/>
<path d="M667 222 c-19 -20 -22 -42 -8 -42 11 0 41 39 41 52 0 14 -16 9 -33
-10z"/>
<path d="M808 193 c-22 -22 -38 -27 -84 -30 -31 -2 -64 -8 -73 -14 -11 -7 1
-8 44 -4 148 15 155 16 146 34 -5 9 -6 22 -4 29 7 18 0 15 -29 -15z"/>
<path d="M880 180 c-9 -6 -10 -10 -3 -10 6 0 15 5 18 10 8 12 4 12 -15 0z"/>
<path d="M445 159 c-17 -5 -40 -24 -53 -44 -24 -38 -47 -47 -39 -15 7 26 -13
26 -47 -1 -35 -27 -33 -39 7 -39 41 0 144 49 176 84 22 24 23 26 5 25 -10 0
-32 -5 -49 -10z"/>
</g>
</svg>
